<svg width="193" height="24" viewBox="0 0 193 24" fill="none" xmlns="http://www.w3.org/2000/svg">
<path d="M10.32 11.384C11.6213 11.6187 12.7093 12.2587 13.584 13.304C14.48 14.3493 14.928 15.576 14.928 16.984C14.928 18.136 14.6507 19.1707 14.096 20.088C13.5627 20.984 12.752 21.6987 11.664 22.232C10.5973 22.744 9.296 23 7.76 23H0.624V0.535999H7.632C9.872 0.535999 11.5573 1.05867 12.688 2.104C13.84 3.128 14.416 4.46133 14.416 6.104C14.416 7.53333 14.032 8.696 13.264 9.592C12.496 10.4667 11.5147 11.064 10.32 11.384ZM2.064 10.744H7.696C9.38133 10.744 10.672 10.3493 11.568 9.56C12.4853 8.74933 12.944 7.64 12.944 6.232C12.944 4.86667 12.496 3.78933 11.6 3C10.704 2.21067 9.34933 1.816 7.536 1.816H2.064V10.744ZM7.664 21.752C9.47733 21.752 10.896 21.3253 11.92 20.472C12.9653 19.5973 13.488 18.4027 13.488 16.888C13.488 15.3947 12.9547 14.2107 11.888 13.336C10.8427 12.44 9.40267 11.992 7.568 11.992H2.064V21.752H7.664ZM20.5953 21.784H28.9473V23H19.1553V0.535999H20.5953V21.784ZM42.2338 23.256C40.1644 23.256 38.2978 22.776 36.6338 21.816C34.9698 20.8347 33.6684 19.4693 32.7298 17.72C31.7911 15.9707 31.3218 13.9973 31.3218 11.8C31.3218 9.58133 31.7911 7.608 32.7298 5.88C33.6684 4.13067 34.9698 2.776 36.6338 1.816C38.2978 0.834666 40.1644 0.344 42.2338 0.344C44.3031 0.344 46.1698 0.834666 47.8338 1.816C49.4978 2.776 50.7991 4.13067 51.7378 5.88C52.6764 7.608 53.1458 9.58133 53.1458 11.8C53.1458 13.9973 52.6764 15.9707 51.7378 17.72C50.7991 19.4693 49.4978 20.8347 47.8338 21.816C46.1698 22.776 44.3031 23.256 42.2338 23.256ZM42.2338 21.976C44.0044 21.976 45.6044 21.56 47.0338 20.728C48.4631 19.896 49.5831 18.712 50.3938 17.176C51.2258 15.64 51.6418 13.848 51.6418 11.8C51.6418 9.73067 51.2258 7.928 50.3938 6.392C49.5831 4.856 48.4631 3.672 47.0338 2.84C45.6044 2.008 44.0044 1.592 42.2338 1.592C40.4631 1.592 38.8631 2.008 37.4338 2.84C36.0044 3.672 34.8738 4.856 34.0418 6.392C33.2098 7.928 32.7938 9.73067 32.7938 11.8C32.7938 13.848 33.2098 15.64 34.0418 17.176C34.8738 18.712 36.0044 19.896 37.4338 20.728C38.8631 21.56 40.4631 21.976 42.2338 21.976ZM75.963 7.16C75.323 5.47467 74.2563 4.13067 72.763 3.128C71.291 2.12533 69.5417 1.624 67.515 1.624C65.7443 1.624 64.1443 2.04 62.715 2.872C61.2857 3.704 60.155 4.888 59.323 6.424C58.491 7.96 58.075 9.752 58.075 11.8C58.075 13.848 58.491 15.64 59.323 17.176C60.155 18.712 61.2857 19.896 62.715 20.728C64.1443 21.5387 65.7443 21.944 67.515 21.944C69.2217 21.944 70.7683 21.56 72.155 20.792C73.5417 20.024 74.651 18.936 75.483 17.528C76.315 16.0987 76.7737 14.4347 76.859 12.536H66.843V11.32H78.331V12.28C78.267 14.3707 77.7657 16.248 76.827 17.912C75.8883 19.576 74.6083 20.8773 72.987 21.816C71.3657 22.7547 69.5417 23.224 67.515 23.224C65.4457 23.224 63.579 22.744 61.915 21.784C60.251 20.8027 58.9497 19.448 58.011 17.72C57.0723 15.9707 56.603 13.9973 56.603 11.8C56.603 9.58133 57.0723 7.608 58.011 5.88C58.9497 4.13067 60.251 2.776 61.915 1.816C63.579 0.834666 65.4457 0.344 67.515 0.344C69.9257 0.344 72.0057 0.952 73.755 2.168C75.5257 3.36267 76.8163 5.02667 77.627 7.16H75.963ZM102.034 23L97.3618 14.52H96.0498V23H90.5778V0.535999H99.7618C101.532 0.535999 103.036 0.845332 104.274 1.464C105.532 2.08267 106.471 2.936 107.09 4.024C107.708 5.09067 108.018 6.28533 108.018 7.608C108.018 9.10133 107.591 10.4347 106.738 11.608C105.906 12.7813 104.668 13.6133 103.026 14.104L108.21 23H102.034ZM96.0498 10.648H99.4418C100.444 10.648 101.191 10.4027 101.682 9.912C102.194 9.42133 102.45 8.728 102.45 7.832C102.45 6.97867 102.194 6.30667 101.682 5.816C101.191 5.32533 100.444 5.08 99.4418 5.08H96.0498V10.648ZM116.925 4.92V9.464H124.253V13.688H116.925V18.616H125.213V23H111.453V0.535999H125.213V4.92H116.925ZM142.749 19.032H134.365L133.021 23H127.293L135.421 0.535999H141.757L149.885 23H144.093L142.749 19.032ZM141.341 14.808L138.557 6.584L135.805 14.808H141.341ZM151.431 11.736C151.431 9.51733 151.911 7.544 152.871 5.816C153.831 4.06667 155.164 2.712 156.871 1.752C158.599 0.770665 160.551 0.279999 162.727 0.279999C165.394 0.279999 167.676 0.983999 169.575 2.392C171.474 3.8 172.743 5.72 173.383 8.152H167.367C166.919 7.21333 166.279 6.49867 165.447 6.008C164.636 5.51733 163.708 5.272 162.663 5.272C160.978 5.272 159.612 5.85867 158.567 7.032C157.522 8.20533 156.999 9.77333 156.999 11.736C156.999 13.6987 157.522 15.2667 158.567 16.44C159.612 17.6133 160.978 18.2 162.663 18.2C163.708 18.2 164.636 17.9547 165.447 17.464C166.279 16.9733 166.919 16.2587 167.367 15.32H173.383C172.743 17.752 171.474 19.672 169.575 21.08C167.676 22.4667 165.394 23.16 162.727 23.16C160.551 23.16 158.599 22.68 156.871 21.72C155.164 20.7387 153.831 19.384 152.871 17.656C151.911 15.928 151.431 13.9547 151.431 11.736ZM192.894 0.535999V4.92H186.942V23H181.47V4.92H175.518V0.535999H192.894Z" fill="#8257E6"/>
</svg>
